Coordinates
version=1
nRows=7
nColumns=40
inDegrees=yes

Units are S.I. units (second, meters, Newtons, ...)
Angles are in degrees.

endheader
time	pelvis_tilt	pelvis_list	pelvis_rotation	pelvis_tx	pelvis_ty	pelvis_tz	hip_flexion_r	hip_adduction_r	hip_rotation_r	knee_angle_r	knee_angle_r_beta	ankle_angle_r	subtalar_angle_r	mtp_angle_r	hip_flexion_l	hip_adduction_l	hip_rotation_l	knee_angle_l	knee_angle_l_beta	ankle_angle_l	subtalar_angle_l	mtp_angle_l	lumbar_extension	lumbar_bending	lumbar_rotation	arm_flex_r	arm_add_r	arm_rot_r	elbow_flex_r	pro_sup_r	wrist_flex_r	wrist_dev_r	arm_flex_l	arm_add_l	arm_rot_l	elbow_flex_l	pro_sup_l	wrist_flex_l	wrist_dev_l
     18.10442857	     -5.86246967	     -4.86042392	      6.29212364	      1.00458789	      0.93268370	      0.48992013	      9.64849917	      4.04653139	    -19.38694740	     10.93006957	     10.93006957	      9.43990073	      3.84058547	     -4.10923893	     43.36411056	     -9.13074327	      3.59976616	     60.47463187	     60.47463187	      8.92235001	    -18.15804664	     12.38672671	    -11.75023430	      5.99135112	      6.29349876	     29.13693397	    -17.09284826	      0.14544246	     41.87270366	     45.53348200	      0.00000000	      0.00000000	     -0.95634450	     -7.98878633	      2.23429387	     22.51483966	     46.69594441	      0.00000000	      0.00000000
     18.11635714	     -5.93921349	     -4.88756463	      6.27449303	      1.00373701	      0.93257286	      0.49000917	      8.95965382	      4.23100788	    -19.26359612	     10.43538958	     10.43538958	      9.64883025	      4.05367992	     -4.09068775	     43.90746429	     -8.87817160	      3.62346817	     57.53044549	     57.53044549	      8.92586486	    -18.03757831	     12.66820895	    -11.73386751	      5.97079174	      6.31724321	     31.32187251	    -17.09220526	      0.12795043	     43.46864914	     45.48944417	      0.00000000	      0.00000000	     -2.60572348	     -8.02255058	      2.23078841	     21.91289232	     46.65319771	      0.00000000	      0.00000000
     18.12828571	     -5.99818967	     -4.95343018	      6.26184704	      1.00301251	      0.93237515	      0.48995005	      8.21417220	      4.45074447	    -19.25438075	      9.88232497	      9.88232497	      9.85649657	      4.38723054	     -4.08418160	     44.24814166	     -8.64668508	      3.68314334	     54.34604455	     54.34604455	      8.92354115	    -17.74991697	     12.78834091	    -11.68510731	      6.03548633	      6.25216074	     33.39265885	    -17.02390379	      0.25561139	     45.51660171	     45.42108041	      0.00000000	      0.00000000	     -4.33141696	     -8.04012459	      2.21431384	     21.54625166	     46.60647919	      0.00000000	      0.00000000
     18.14021429	     -6.05017756	     -5.03346417	      6.23427143	      1.00241360	      0.93207904	      0.48975094	      7.41842791	      4.68118332	    -19.25154723	      9.26927540	      9.26927540	     10.07563285	      4.89091658	     -4.08950768	     44.37167395	     -8.38084021	      3.86043234	     50.94488837	     50.94488837	      8.95999407	    -17.28770732	     12.67015955	    -11.65821712	      6.12111323	      6.15772117	     35.24922725	    -16.93778604	      0.52622278	     48.00773813	     45.32987822	      0.00000000	      0.00000000	     -6.10997824	     -8.04522026	      2.17650706	     21.50151306	     46.55661890	      0.00000000	      0.00000000
     18.15214286	     -6.11473889	     -5.14455169	      6.16803934	      1.00191846	      0.93166992	      0.48948607	      6.65120342	      4.92872617	    -19.29248204	      8.69897937	      8.69897937	     10.28544431	      5.42151045	     -4.10401228	     44.32298574	     -8.20369434	      3.98701827	     47.36839555	     47.36839555	      8.97013273	    -16.49305070	     12.50397952	    -11.60393513	      6.22709021	      6.20601328	     36.93900166	    -16.96991225	      0.79168334	     50.54001162	     45.23865403	      0.00000000	      0.00000000	     -7.84278706	     -8.02351636	      2.12980320	     21.65478983	     46.50787671	      0.00000000	      0.00000000
     18.16407143	     -6.19583217	     -5.30759911	      6.09048697	      1.00161574	      0.93103508	      0.48911363	      5.88337249	      5.20567116	    -19.49270853	      8.12763216	      8.12763216	     10.57241448	      6.28788021	     -4.10774934	     44.11450316	     -8.10769176	      4.08932842	     43.66714016	     43.66714016	      8.70909498	    -15.52042684	     11.43013226	    -11.54562398	      6.39283894	      6.53634478	     37.82618640	    -17.61269626	      1.61400561	     54.93559499	     45.06625827	      0.00000000	      0.00000000	     -9.82922594	     -8.10561315	      2.05600102	     23.14851087	     46.42085775	      0.00000000	      0.00000000
     18.17600000	     -6.21422152	     -5.43328284	      5.97654802	      1.00150573	      0.93042689	      0.48864396	      5.01916664	      5.47424657	    -19.41931376	      7.52294767	      7.52294767	     10.79427412	      6.76039952	     -4.10101056	     43.66461693	     -8.01119308	      4.13210321	     39.98089526	     39.98089526	      8.92091430	    -14.29047558	     11.64048633	    -11.46235003	      6.55158893	      6.48404388	     39.61264441	    -17.31186909	      1.59678100	     56.97761927	     45.00973257	      0.00000000	      0.00000000	    -11.37170054	     -7.97425637	      2.13869303	     22.92128564	     46.36164584	      0.00000000	      0.00000000
